<mxfile host="Electron" modified="2024-01-13T05:48:50.241Z" agent="Mozilla/5.0 (Windows NT 10.0; Win64; x64) AppleWebKit/537.36 (KHTML, like Gecko) draw.io/22.1.18 Chrome/120.0.6099.199 Electron/28.1.2 Safari/537.36" etag="agH1P2tsj35L7nssJ5ox" version="22.1.18" type="device">
  <diagram name="Trang-1" id="AkJh7cNsHU27-QUVwCX1">
    <mxGraphModel dx="2625" dy="4973" grid="0" gridSize="14" guides="1" tooltips="1" connect="1" arrows="1" fold="1" page="1" pageScale="1" pageWidth="4681" pageHeight="3300" background="#ffffff" math="0" shadow="0">
      <root>
        <mxCell id="0" />
        <mxCell id="1" parent="0" />
        <mxCell id="Ps7PQwY17gpdZxub9paN-48" style="edgeStyle=none;shape=connector;rounded=0;orthogonalLoop=1;jettySize=auto;html=1;exitX=1;exitY=1;exitDx=0;exitDy=0;exitPerimeter=0;entryX=0;entryY=0.5;entryDx=0;entryDy=0;labelBackgroundColor=default;strokeColor=default;align=center;verticalAlign=middle;fontFamily=Helvetica;fontSize=11;fontColor=default;endArrow=none;endFill=0;" parent="1" source="Ps7PQwY17gpdZxub9paN-2" target="Ps7PQwY17gpdZxub9paN-7" edge="1">
          <mxGeometry relative="1" as="geometry" />
        </mxCell>
        <mxCell id="Ps7PQwY17gpdZxub9paN-2" value="&lt;font style=&quot;font-size: 25px;&quot;&gt;Creator&lt;/font&gt;" style="shape=umlActor;verticalLabelPosition=bottom;verticalAlign=top;html=1;outlineConnect=0;perimeterSpacing=15;" parent="1" vertex="1">
          <mxGeometry x="286" y="-507" width="63" height="118" as="geometry" />
        </mxCell>
        <mxCell id="Ps7PQwY17gpdZxub9paN-3" value="&lt;font style=&quot;font-size: 25px;&quot;&gt;Admin&lt;/font&gt;" style="shape=umlActor;verticalLabelPosition=bottom;verticalAlign=top;html=1;outlineConnect=0;perimeterSpacing=15;" parent="1" vertex="1">
          <mxGeometry x="284" y="1094" width="63" height="118" as="geometry" />
        </mxCell>
        <mxCell id="Ps7PQwY17gpdZxub9paN-22" style="rounded=0;orthogonalLoop=1;jettySize=auto;html=1;exitX=1;exitY=0.3333333333333333;exitDx=0;exitDy=0;exitPerimeter=0;entryX=0;entryY=0.5;entryDx=0;entryDy=0;endArrow=none;endFill=0;" parent="1" source="Ps7PQwY17gpdZxub9paN-4" target="Ps7PQwY17gpdZxub9paN-9" edge="1">
          <mxGeometry relative="1" as="geometry" />
        </mxCell>
        <mxCell id="Ps7PQwY17gpdZxub9paN-33" style="edgeStyle=none;shape=connector;rounded=0;orthogonalLoop=1;jettySize=auto;html=1;exitX=1;exitY=0.3333333333333333;exitDx=0;exitDy=0;exitPerimeter=0;entryX=0;entryY=0.5;entryDx=0;entryDy=0;labelBackgroundColor=default;strokeColor=default;align=center;verticalAlign=middle;fontFamily=Helvetica;fontSize=11;fontColor=default;endArrow=none;endFill=0;" parent="1" source="Ps7PQwY17gpdZxub9paN-4" target="Ps7PQwY17gpdZxub9paN-11" edge="1">
          <mxGeometry relative="1" as="geometry" />
        </mxCell>
        <mxCell id="Ps7PQwY17gpdZxub9paN-34" style="edgeStyle=none;shape=connector;rounded=0;orthogonalLoop=1;jettySize=auto;html=1;exitX=1;exitY=0.3333333333333333;exitDx=0;exitDy=0;exitPerimeter=0;entryX=0;entryY=0.5;entryDx=0;entryDy=0;labelBackgroundColor=default;strokeColor=default;align=center;verticalAlign=middle;fontFamily=Helvetica;fontSize=11;fontColor=default;endArrow=none;endFill=0;" parent="1" source="Ps7PQwY17gpdZxub9paN-4" target="Ps7PQwY17gpdZxub9paN-8" edge="1">
          <mxGeometry relative="1" as="geometry">
            <Array as="points" />
          </mxGeometry>
        </mxCell>
        <mxCell id="Ps7PQwY17gpdZxub9paN-50" style="edgeStyle=none;shape=connector;rounded=0;orthogonalLoop=1;jettySize=auto;html=1;exitX=1;exitY=0.3333333333333333;exitDx=0;exitDy=0;exitPerimeter=0;entryX=0;entryY=1;entryDx=0;entryDy=0;labelBackgroundColor=default;strokeColor=default;align=center;verticalAlign=middle;fontFamily=Helvetica;fontSize=11;fontColor=default;endArrow=none;endFill=0;" parent="1" source="Ps7PQwY17gpdZxub9paN-4" target="Ps7PQwY17gpdZxub9paN-7" edge="1">
          <mxGeometry relative="1" as="geometry" />
        </mxCell>
        <mxCell id="Ps7PQwY17gpdZxub9paN-52" style="edgeStyle=none;shape=connector;rounded=0;orthogonalLoop=1;jettySize=auto;html=1;exitX=1;exitY=0.3333333333333333;exitDx=0;exitDy=0;exitPerimeter=0;entryX=0;entryY=0.25;entryDx=0;entryDy=0;labelBackgroundColor=default;strokeColor=default;align=center;verticalAlign=middle;fontFamily=Helvetica;fontSize=11;fontColor=default;endArrow=none;endFill=0;" parent="1" source="Ps7PQwY17gpdZxub9paN-4" target="Ps7PQwY17gpdZxub9paN-12" edge="1">
          <mxGeometry relative="1" as="geometry" />
        </mxCell>
        <mxCell id="Ps7PQwY17gpdZxub9paN-53" style="edgeStyle=none;shape=connector;rounded=0;orthogonalLoop=1;jettySize=auto;html=1;exitX=1;exitY=0.3333333333333333;exitDx=0;exitDy=0;exitPerimeter=0;entryX=0;entryY=0.5;entryDx=0;entryDy=0;labelBackgroundColor=default;strokeColor=default;align=center;verticalAlign=middle;fontFamily=Helvetica;fontSize=11;fontColor=default;endArrow=none;endFill=0;" parent="1" source="Ps7PQwY17gpdZxub9paN-4" target="Ps7PQwY17gpdZxub9paN-14" edge="1">
          <mxGeometry relative="1" as="geometry" />
        </mxCell>
        <mxCell id="Ps7PQwY17gpdZxub9paN-4" value="&lt;p style=&quot;line-height: 130%;&quot;&gt;&lt;font style=&quot;font-size: 23px;&quot;&gt;Audience&lt;/font&gt;&lt;br&gt;&lt;/p&gt;" style="shape=umlActor;verticalLabelPosition=bottom;verticalAlign=top;html=1;outlineConnect=0;perimeterSpacing=15;" parent="1" vertex="1">
          <mxGeometry x="284" y="58" width="63" height="118" as="geometry" />
        </mxCell>
        <mxCell id="Ps7PQwY17gpdZxub9paN-25" style="edgeStyle=none;shape=connector;rounded=0;orthogonalLoop=1;jettySize=auto;html=1;exitX=1;exitY=0.3333333333333333;exitDx=0;exitDy=0;exitPerimeter=0;entryX=0;entryY=1;entryDx=0;entryDy=0;labelBackgroundColor=default;strokeColor=default;align=center;verticalAlign=middle;fontFamily=Helvetica;fontSize=11;fontColor=default;endArrow=none;endFill=0;" parent="1" source="Ps7PQwY17gpdZxub9paN-5" target="Ps7PQwY17gpdZxub9paN-9" edge="1">
          <mxGeometry relative="1" as="geometry" />
        </mxCell>
        <mxCell id="Ps7PQwY17gpdZxub9paN-27" style="edgeStyle=none;shape=connector;rounded=0;orthogonalLoop=1;jettySize=auto;html=1;exitX=1;exitY=1;exitDx=0;exitDy=0;exitPerimeter=0;entryX=0;entryY=0.5;entryDx=0;entryDy=0;labelBackgroundColor=default;strokeColor=default;align=center;verticalAlign=middle;fontFamily=Helvetica;fontSize=11;fontColor=default;endArrow=none;endFill=0;" parent="1" source="Ps7PQwY17gpdZxub9paN-5" target="Ps7PQwY17gpdZxub9paN-10" edge="1">
          <mxGeometry relative="1" as="geometry" />
        </mxCell>
        <mxCell id="Ps7PQwY17gpdZxub9paN-5" value="&lt;font style=&quot;font-size: 25px;&quot;&gt;Guest&lt;/font&gt;" style="shape=umlActor;verticalLabelPosition=bottom;verticalAlign=top;html=1;outlineConnect=0;perimeterSpacing=15;" parent="1" vertex="1">
          <mxGeometry x="284" y="593" width="63" height="118" as="geometry" />
        </mxCell>
        <mxCell id="Ps7PQwY17gpdZxub9paN-6" value="Container" style="swimlane;strokeWidth=2;fillColor=#f8cecc;strokeColor=#b85450;" parent="1" vertex="1">
          <mxGeometry x="627" y="-1219" width="3483" height="3135" as="geometry" />
        </mxCell>
        <mxCell id="Ps7PQwY17gpdZxub9paN-7" value="&lt;font style=&quot;font-size: 25px;&quot;&gt;Search for Artwork&lt;/font&gt;" style="rounded=1;whiteSpace=wrap;html=1;glass=0;" parent="Ps7PQwY17gpdZxub9paN-6" vertex="1">
          <mxGeometry x="189" y="583" width="282" height="60" as="geometry" />
        </mxCell>
        <mxCell id="Ps7PQwY17gpdZxub9paN-58" style="edgeStyle=none;shape=connector;rounded=0;orthogonalLoop=1;jettySize=auto;html=1;exitX=1;exitY=0.5;exitDx=0;exitDy=0;entryX=0;entryY=0.5;entryDx=0;entryDy=0;labelBackgroundColor=default;strokeColor=default;align=center;verticalAlign=middle;fontFamily=Helvetica;fontSize=11;fontColor=default;endArrow=none;endFill=0;startArrow=block;startFill=0;" parent="Ps7PQwY17gpdZxub9paN-6" source="Ps7PQwY17gpdZxub9paN-12" target="Ps7PQwY17gpdZxub9paN-55" edge="1">
          <mxGeometry relative="1" as="geometry" />
        </mxCell>
        <mxCell id="Ps7PQwY17gpdZxub9paN-12" value="&lt;span style=&quot;font-size: 25px;&quot;&gt;Request Artistic Services&lt;/span&gt;" style="rounded=1;whiteSpace=wrap;html=1;glass=0;" parent="Ps7PQwY17gpdZxub9paN-6" vertex="1">
          <mxGeometry x="285" y="753" width="280" height="113" as="geometry" />
        </mxCell>
        <mxCell id="Ps7PQwY17gpdZxub9paN-11" value="&lt;span style=&quot;font-size: 25px;&quot;&gt;Interact with Artwork&lt;/span&gt;" style="rounded=1;whiteSpace=wrap;html=1;glass=0;" parent="Ps7PQwY17gpdZxub9paN-6" vertex="1">
          <mxGeometry x="42" y="1399" width="335" height="78" as="geometry" />
        </mxCell>
        <mxCell id="Ps7PQwY17gpdZxub9paN-10" value="&lt;span style=&quot;font-size: 25px;&quot;&gt;Sign Up&lt;/span&gt;" style="rounded=1;whiteSpace=wrap;html=1;glass=0;" parent="Ps7PQwY17gpdZxub9paN-6" vertex="1">
          <mxGeometry x="74" y="1801" width="271" height="65" as="geometry" />
        </mxCell>
        <mxCell id="Ps7PQwY17gpdZxub9paN-9" value="&lt;span style=&quot;font-size: 25px;&quot;&gt;View ArtWork&lt;/span&gt;" style="rounded=1;whiteSpace=wrap;html=1;glass=0;" parent="Ps7PQwY17gpdZxub9paN-6" vertex="1">
          <mxGeometry x="123" y="1609" width="226" height="73" as="geometry" />
        </mxCell>
        <mxCell id="Ps7PQwY17gpdZxub9paN-8" value="&lt;span style=&quot;font-size: 25px;&quot;&gt;Purchase Premium ArtWork&lt;/span&gt;" style="rounded=1;whiteSpace=wrap;html=1;glass=0;" parent="Ps7PQwY17gpdZxub9paN-6" vertex="1">
          <mxGeometry x="159" y="980" width="325" height="63" as="geometry" />
        </mxCell>
        <mxCell id="Ps7PQwY17gpdZxub9paN-17" value="&lt;span style=&quot;font-size: 25px;&quot;&gt;Follow Favorite Creators&lt;/span&gt;" style="rounded=1;whiteSpace=wrap;html=1;glass=0;" parent="Ps7PQwY17gpdZxub9paN-6" vertex="1">
          <mxGeometry x="104" y="1223" width="323" height="83" as="geometry" />
        </mxCell>
        <mxCell id="Ps7PQwY17gpdZxub9paN-16" value="&lt;span style=&quot;font-size: 25px;&quot;&gt;Receive Notifications&lt;/span&gt;" style="rounded=1;whiteSpace=wrap;html=1;glass=0;" parent="Ps7PQwY17gpdZxub9paN-6" vertex="1">
          <mxGeometry x="1370" y="1507" width="298" height="76" as="geometry" />
        </mxCell>
        <mxCell id="Ps7PQwY17gpdZxub9paN-14" value="&lt;span style=&quot;font-size: 25px;&quot;&gt;Login&lt;/span&gt;" style="rounded=1;whiteSpace=wrap;html=1;glass=0;" parent="Ps7PQwY17gpdZxub9paN-6" vertex="1">
          <mxGeometry x="147" y="1123" width="232" height="70" as="geometry" />
        </mxCell>
        <mxCell id="Ps7PQwY17gpdZxub9paN-13" value="&lt;span style=&quot;font-size: 25px;&quot;&gt;Management&amp;nbsp;&lt;/span&gt;" style="rounded=1;whiteSpace=wrap;html=1;glass=0;" parent="Ps7PQwY17gpdZxub9paN-6" vertex="1">
          <mxGeometry x="84.5" y="2193" width="303" height="86" as="geometry" />
        </mxCell>
        <mxCell id="Ps7PQwY17gpdZxub9paN-32" style="edgeStyle=none;shape=connector;rounded=0;orthogonalLoop=1;jettySize=auto;html=1;exitX=0;exitY=0.5;exitDx=0;exitDy=0;labelBackgroundColor=default;strokeColor=default;align=center;verticalAlign=middle;fontFamily=Helvetica;fontSize=11;fontColor=default;endArrow=block;endFill=0;" parent="Ps7PQwY17gpdZxub9paN-6" source="Ps7PQwY17gpdZxub9paN-28" target="Ps7PQwY17gpdZxub9paN-11" edge="1">
          <mxGeometry relative="1" as="geometry" />
        </mxCell>
        <mxCell id="Ps7PQwY17gpdZxub9paN-28" value="&lt;font style=&quot;font-size: 25px;&quot;&gt;Comments&lt;/font&gt;" style="ellipse;whiteSpace=wrap;html=1;fontFamily=Helvetica;fontSize=11;fontColor=default;" parent="Ps7PQwY17gpdZxub9paN-6" vertex="1">
          <mxGeometry x="427" y="1557" width="264" height="109" as="geometry" />
        </mxCell>
        <mxCell id="Ps7PQwY17gpdZxub9paN-31" style="edgeStyle=none;shape=connector;rounded=0;orthogonalLoop=1;jettySize=auto;html=1;exitX=0;exitY=1;exitDx=0;exitDy=0;entryX=1;entryY=0.5;entryDx=0;entryDy=0;labelBackgroundColor=default;strokeColor=default;align=center;verticalAlign=middle;fontFamily=Helvetica;fontSize=11;fontColor=default;endArrow=block;endFill=0;strokeWidth=4;startSize=15;" parent="Ps7PQwY17gpdZxub9paN-6" source="Ps7PQwY17gpdZxub9paN-29" target="Ps7PQwY17gpdZxub9paN-11" edge="1">
          <mxGeometry relative="1" as="geometry" />
        </mxCell>
        <mxCell id="Ps7PQwY17gpdZxub9paN-29" value="&lt;span style=&quot;font-size: 25px;&quot;&gt;Like&lt;/span&gt;" style="ellipse;whiteSpace=wrap;html=1;fontFamily=Helvetica;fontSize=11;fontColor=default;" parent="Ps7PQwY17gpdZxub9paN-6" vertex="1">
          <mxGeometry x="445" y="1388" width="264" height="109" as="geometry" />
        </mxCell>
        <mxCell id="Ps7PQwY17gpdZxub9paN-42" style="edgeStyle=none;shape=connector;rounded=0;orthogonalLoop=1;jettySize=auto;html=1;exitX=0;exitY=0.5;exitDx=0;exitDy=0;entryX=1;entryY=0.5;entryDx=0;entryDy=0;labelBackgroundColor=default;strokeColor=default;align=center;verticalAlign=middle;fontFamily=Helvetica;fontSize=11;fontColor=default;endArrow=block;endFill=0;" parent="Ps7PQwY17gpdZxub9paN-6" source="Ps7PQwY17gpdZxub9paN-39" target="Ps7PQwY17gpdZxub9paN-7" edge="1">
          <mxGeometry relative="1" as="geometry" />
        </mxCell>
        <mxCell id="Ps7PQwY17gpdZxub9paN-39" value="&lt;span style=&quot;font-size: 25px;&quot;&gt;Search by Color themes&lt;/span&gt;" style="ellipse;whiteSpace=wrap;html=1;fontFamily=Helvetica;fontSize=11;fontColor=default;" parent="Ps7PQwY17gpdZxub9paN-6" vertex="1">
          <mxGeometry x="1097" y="272" width="264" height="109" as="geometry" />
        </mxCell>
        <mxCell id="Ps7PQwY17gpdZxub9paN-43" style="edgeStyle=none;shape=connector;rounded=0;orthogonalLoop=1;jettySize=auto;html=1;exitX=0;exitY=0.5;exitDx=0;exitDy=0;entryX=0.75;entryY=1;entryDx=0;entryDy=0;labelBackgroundColor=default;strokeColor=default;align=center;verticalAlign=middle;fontFamily=Helvetica;fontSize=11;fontColor=default;endArrow=block;endFill=0;" parent="Ps7PQwY17gpdZxub9paN-6" source="Ps7PQwY17gpdZxub9paN-38" target="Ps7PQwY17gpdZxub9paN-7" edge="1">
          <mxGeometry relative="1" as="geometry" />
        </mxCell>
        <mxCell id="Ps7PQwY17gpdZxub9paN-38" value="&lt;span style=&quot;font-size: 25px;&quot;&gt;Search by date creation&lt;/span&gt;" style="ellipse;whiteSpace=wrap;html=1;fontFamily=Helvetica;fontSize=11;fontColor=default;" parent="Ps7PQwY17gpdZxub9paN-6" vertex="1">
          <mxGeometry x="1113" y="428" width="264" height="109" as="geometry" />
        </mxCell>
        <mxCell id="Ps7PQwY17gpdZxub9paN-49" style="edgeStyle=none;shape=connector;rounded=0;orthogonalLoop=1;jettySize=auto;html=1;exitX=0;exitY=0.5;exitDx=0;exitDy=0;entryX=1;entryY=0.25;entryDx=0;entryDy=0;labelBackgroundColor=default;strokeColor=default;align=center;verticalAlign=middle;fontFamily=Helvetica;fontSize=11;fontColor=default;endArrow=none;endFill=0;" parent="Ps7PQwY17gpdZxub9paN-6" source="Ps7PQwY17gpdZxub9paN-37" target="Ps7PQwY17gpdZxub9paN-7" edge="1">
          <mxGeometry relative="1" as="geometry" />
        </mxCell>
        <mxCell id="Ps7PQwY17gpdZxub9paN-37" value="&lt;span style=&quot;font-size: 25px;&quot;&gt;Search By category&lt;/span&gt;" style="ellipse;whiteSpace=wrap;html=1;fontFamily=Helvetica;fontSize=11;fontColor=default;" parent="Ps7PQwY17gpdZxub9paN-6" vertex="1">
          <mxGeometry x="1108" y="576" width="264" height="109" as="geometry" />
        </mxCell>
        <mxCell id="Ps7PQwY17gpdZxub9paN-47" style="edgeStyle=none;shape=connector;rounded=0;orthogonalLoop=1;jettySize=auto;html=1;exitX=0;exitY=1;exitDx=0;exitDy=0;entryX=1;entryY=0;entryDx=0;entryDy=0;labelBackgroundColor=default;strokeColor=default;align=center;verticalAlign=middle;fontFamily=Helvetica;fontSize=11;fontColor=default;endArrow=block;endFill=0;" parent="Ps7PQwY17gpdZxub9paN-6" source="Ps7PQwY17gpdZxub9paN-36" target="Ps7PQwY17gpdZxub9paN-7" edge="1">
          <mxGeometry relative="1" as="geometry" />
        </mxCell>
        <mxCell id="Ps7PQwY17gpdZxub9paN-36" value="&lt;span style=&quot;font-size: 25px;&quot;&gt;Search by Name&lt;/span&gt;" style="ellipse;whiteSpace=wrap;html=1;fontFamily=Helvetica;fontSize=11;fontColor=default;" parent="Ps7PQwY17gpdZxub9paN-6" vertex="1">
          <mxGeometry x="1088" y="130" width="264" height="109" as="geometry" />
        </mxCell>
        <mxCell id="Ps7PQwY17gpdZxub9paN-46" style="edgeStyle=none;shape=connector;rounded=0;orthogonalLoop=1;jettySize=auto;html=1;exitX=0;exitY=0.5;exitDx=0;exitDy=0;entryX=1;entryY=1;entryDx=0;entryDy=0;labelBackgroundColor=default;strokeColor=default;align=center;verticalAlign=middle;fontFamily=Helvetica;fontSize=11;fontColor=default;endArrow=block;endFill=0;" parent="Ps7PQwY17gpdZxub9paN-6" source="Ps7PQwY17gpdZxub9paN-45" target="Ps7PQwY17gpdZxub9paN-8" edge="1">
          <mxGeometry relative="1" as="geometry" />
        </mxCell>
        <mxCell id="Ps7PQwY17gpdZxub9paN-45" value="&lt;span style=&quot;font-size: 25px;&quot;&gt;Purchase with Paypal&lt;/span&gt;" style="ellipse;whiteSpace=wrap;html=1;fontFamily=Helvetica;fontSize=11;fontColor=default;" parent="Ps7PQwY17gpdZxub9paN-6" vertex="1">
          <mxGeometry x="523" y="975" width="264" height="107" as="geometry" />
        </mxCell>
        <mxCell id="Ps7PQwY17gpdZxub9paN-59" style="edgeStyle=none;shape=connector;rounded=0;orthogonalLoop=1;jettySize=auto;html=1;exitX=0;exitY=0.5;exitDx=0;exitDy=0;entryX=1;entryY=0.75;entryDx=0;entryDy=0;labelBackgroundColor=default;strokeColor=default;align=center;verticalAlign=middle;fontFamily=Helvetica;fontSize=11;fontColor=default;endArrow=block;endFill=0;" parent="Ps7PQwY17gpdZxub9paN-6" source="Ps7PQwY17gpdZxub9paN-56" target="Ps7PQwY17gpdZxub9paN-12" edge="1">
          <mxGeometry relative="1" as="geometry" />
        </mxCell>
        <mxCell id="Ps7PQwY17gpdZxub9paN-56" value="&lt;span style=&quot;font-size: 25px;&quot;&gt;Subject by style&lt;/span&gt;" style="ellipse;whiteSpace=wrap;html=1;fontFamily=Helvetica;fontSize=11;fontColor=default;" parent="Ps7PQwY17gpdZxub9paN-6" vertex="1">
          <mxGeometry x="1269" y="881" width="264" height="109" as="geometry" />
        </mxCell>
        <mxCell id="Ps7PQwY17gpdZxub9paN-55" value="&lt;span style=&quot;font-size: 25px;&quot;&gt;Subject by matter&lt;/span&gt;" style="ellipse;whiteSpace=wrap;html=1;fontFamily=Helvetica;fontSize=11;fontColor=default;" parent="Ps7PQwY17gpdZxub9paN-6" vertex="1">
          <mxGeometry x="1184" y="728" width="264" height="109" as="geometry" />
        </mxCell>
        <mxCell id="Ps7PQwY17gpdZxub9paN-60" style="edgeStyle=none;shape=connector;rounded=0;orthogonalLoop=1;jettySize=auto;html=1;exitX=0;exitY=0.5;exitDx=0;exitDy=0;entryX=1;entryY=1;entryDx=0;entryDy=0;labelBackgroundColor=default;strokeColor=default;align=center;verticalAlign=middle;fontFamily=Helvetica;fontSize=11;fontColor=default;endArrow=block;endFill=0;" parent="Ps7PQwY17gpdZxub9paN-6" source="Ps7PQwY17gpdZxub9paN-54" target="Ps7PQwY17gpdZxub9paN-12" edge="1">
          <mxGeometry relative="1" as="geometry" />
        </mxCell>
        <mxCell id="Ps7PQwY17gpdZxub9paN-54" value="&lt;span style=&quot;font-size: 25px;&quot;&gt;Subject by size&lt;/span&gt;" style="ellipse;whiteSpace=wrap;html=1;fontFamily=Helvetica;fontSize=11;fontColor=default;" parent="Ps7PQwY17gpdZxub9paN-6" vertex="1">
          <mxGeometry x="1275" y="1068" width="264" height="109" as="geometry" />
        </mxCell>
        <mxCell id="B167JhMeAKVKnHxiFFga-4" style="edgeStyle=none;shape=connector;rounded=0;orthogonalLoop=1;jettySize=auto;html=1;exitX=0;exitY=0.5;exitDx=0;exitDy=0;entryX=1;entryY=0.75;entryDx=0;entryDy=0;labelBackgroundColor=default;strokeColor=default;align=center;verticalAlign=middle;fontFamily=Helvetica;fontSize=11;fontColor=default;endArrow=block;endFill=0;" parent="Ps7PQwY17gpdZxub9paN-6" source="B167JhMeAKVKnHxiFFga-2" target="Ps7PQwY17gpdZxub9paN-17" edge="1">
          <mxGeometry relative="1" as="geometry" />
        </mxCell>
        <mxCell id="B167JhMeAKVKnHxiFFga-2" value="&lt;span style=&quot;font-size: 25px;&quot;&gt;Activity of creator&lt;/span&gt;" style="ellipse;whiteSpace=wrap;html=1;fontFamily=Helvetica;fontSize=11;fontColor=default;" parent="Ps7PQwY17gpdZxub9paN-6" vertex="1">
          <mxGeometry x="519" y="1245" width="264" height="109" as="geometry" />
        </mxCell>
        <mxCell id="B167JhMeAKVKnHxiFFga-3" style="edgeStyle=none;shape=connector;rounded=0;orthogonalLoop=1;jettySize=auto;html=1;exitX=0;exitY=0.5;exitDx=0;exitDy=0;entryX=1;entryY=0;entryDx=0;entryDy=0;labelBackgroundColor=default;strokeColor=default;align=center;verticalAlign=middle;fontFamily=Helvetica;fontSize=11;fontColor=default;endArrow=block;endFill=0;" parent="Ps7PQwY17gpdZxub9paN-6" source="B167JhMeAKVKnHxiFFga-1" target="Ps7PQwY17gpdZxub9paN-17" edge="1">
          <mxGeometry relative="1" as="geometry" />
        </mxCell>
        <mxCell id="B167JhMeAKVKnHxiFFga-1" value="&lt;span style=&quot;font-size: 25px;&quot;&gt;Profile of creator&lt;/span&gt;" style="ellipse;whiteSpace=wrap;html=1;fontFamily=Helvetica;fontSize=11;fontColor=default;" parent="Ps7PQwY17gpdZxub9paN-6" vertex="1">
          <mxGeometry x="516" y="1109" width="264" height="109" as="geometry" />
        </mxCell>
        <mxCell id="6LYkFVo2_rcvai8_w9H4-1" value="&lt;span style=&quot;font-size: 25px;&quot;&gt;Moderator&lt;/span&gt;" style="rounded=1;whiteSpace=wrap;html=1;glass=0;" vertex="1" parent="Ps7PQwY17gpdZxub9paN-6">
          <mxGeometry x="81" y="2472" width="303" height="86" as="geometry" />
        </mxCell>
        <mxCell id="6LYkFVo2_rcvai8_w9H4-5" style="rounded=0;orthogonalLoop=1;jettySize=auto;html=1;exitX=0;exitY=0.5;exitDx=0;exitDy=0;entryX=0.75;entryY=0;entryDx=0;entryDy=0;endArrow=block;endFill=0;" edge="1" parent="Ps7PQwY17gpdZxub9paN-6" source="6LYkFVo2_rcvai8_w9H4-2" target="Ps7PQwY17gpdZxub9paN-13">
          <mxGeometry relative="1" as="geometry" />
        </mxCell>
        <mxCell id="6LYkFVo2_rcvai8_w9H4-2" value="&lt;span style=&quot;font-size: 25px;&quot;&gt;Statistics&lt;/span&gt;" style="ellipse;whiteSpace=wrap;html=1;fontFamily=Helvetica;fontSize=11;fontColor=default;" vertex="1" parent="Ps7PQwY17gpdZxub9paN-6">
          <mxGeometry x="574" y="1923" width="264" height="109" as="geometry" />
        </mxCell>
        <mxCell id="6LYkFVo2_rcvai8_w9H4-8" style="edgeStyle=none;shape=connector;rounded=0;orthogonalLoop=1;jettySize=auto;html=1;exitX=0;exitY=0.5;exitDx=0;exitDy=0;entryX=1;entryY=0.75;entryDx=0;entryDy=0;labelBackgroundColor=default;strokeColor=default;align=center;verticalAlign=middle;fontFamily=Helvetica;fontSize=11;fontColor=default;endArrow=block;endFill=0;" edge="1" parent="Ps7PQwY17gpdZxub9paN-6" source="6LYkFVo2_rcvai8_w9H4-4" target="Ps7PQwY17gpdZxub9paN-13">
          <mxGeometry relative="1" as="geometry" />
        </mxCell>
        <mxCell id="6LYkFVo2_rcvai8_w9H4-4" value="&lt;span style=&quot;font-size: 25px;&quot;&gt;Manage Users&lt;/span&gt;" style="ellipse;whiteSpace=wrap;html=1;fontFamily=Helvetica;fontSize=11;fontColor=default;" vertex="1" parent="Ps7PQwY17gpdZxub9paN-6">
          <mxGeometry x="595" y="2217" width="264" height="109" as="geometry" />
        </mxCell>
        <mxCell id="6LYkFVo2_rcvai8_w9H4-7" style="edgeStyle=none;shape=connector;rounded=0;orthogonalLoop=1;jettySize=auto;html=1;exitX=0;exitY=0.5;exitDx=0;exitDy=0;entryX=1;entryY=0.25;entryDx=0;entryDy=0;labelBackgroundColor=default;strokeColor=default;align=center;verticalAlign=middle;fontFamily=Helvetica;fontSize=11;fontColor=default;endArrow=block;endFill=0;" edge="1" parent="Ps7PQwY17gpdZxub9paN-6" source="6LYkFVo2_rcvai8_w9H4-3" target="Ps7PQwY17gpdZxub9paN-13">
          <mxGeometry relative="1" as="geometry" />
        </mxCell>
        <mxCell id="6LYkFVo2_rcvai8_w9H4-3" value="&lt;span style=&quot;font-size: 25px;&quot;&gt;Transaction Logs&lt;/span&gt;" style="ellipse;whiteSpace=wrap;html=1;fontFamily=Helvetica;fontSize=11;fontColor=default;" vertex="1" parent="Ps7PQwY17gpdZxub9paN-6">
          <mxGeometry x="579" y="2070" width="264" height="109" as="geometry" />
        </mxCell>
        <mxCell id="6LYkFVo2_rcvai8_w9H4-13" style="edgeStyle=none;shape=connector;rounded=0;orthogonalLoop=1;jettySize=auto;html=1;exitX=0;exitY=0.5;exitDx=0;exitDy=0;entryX=1;entryY=0.75;entryDx=0;entryDy=0;labelBackgroundColor=default;strokeColor=default;align=center;verticalAlign=middle;fontFamily=Helvetica;fontSize=11;fontColor=default;endArrow=block;endFill=0;" edge="1" parent="Ps7PQwY17gpdZxub9paN-6" source="6LYkFVo2_rcvai8_w9H4-11" target="6LYkFVo2_rcvai8_w9H4-1">
          <mxGeometry relative="1" as="geometry" />
        </mxCell>
        <mxCell id="6LYkFVo2_rcvai8_w9H4-11" value="&lt;span style=&quot;font-size: 25px;&quot;&gt;Mod Supports&lt;/span&gt;" style="ellipse;whiteSpace=wrap;html=1;fontFamily=Helvetica;fontSize=11;fontColor=default;" vertex="1" parent="Ps7PQwY17gpdZxub9paN-6">
          <mxGeometry x="519" y="2577" width="264" height="109" as="geometry" />
        </mxCell>
        <mxCell id="6LYkFVo2_rcvai8_w9H4-12" style="edgeStyle=none;shape=connector;rounded=0;orthogonalLoop=1;jettySize=auto;html=1;exitX=0;exitY=0.5;exitDx=0;exitDy=0;entryX=1;entryY=0.25;entryDx=0;entryDy=0;labelBackgroundColor=default;strokeColor=default;align=center;verticalAlign=middle;fontFamily=Helvetica;fontSize=11;fontColor=default;endArrow=block;endFill=0;" edge="1" parent="Ps7PQwY17gpdZxub9paN-6" source="6LYkFVo2_rcvai8_w9H4-10" target="6LYkFVo2_rcvai8_w9H4-1">
          <mxGeometry relative="1" as="geometry" />
        </mxCell>
        <mxCell id="6LYkFVo2_rcvai8_w9H4-10" value="&lt;span style=&quot;font-size: 25px;&quot;&gt;View Reports&lt;/span&gt;" style="ellipse;whiteSpace=wrap;html=1;fontFamily=Helvetica;fontSize=11;fontColor=default;" vertex="1" parent="Ps7PQwY17gpdZxub9paN-6">
          <mxGeometry x="534" y="2398" width="264" height="109" as="geometry" />
        </mxCell>
        <mxCell id="6LYkFVo2_rcvai8_w9H4-15" style="edgeStyle=none;shape=connector;rounded=0;orthogonalLoop=1;jettySize=auto;html=1;exitX=0;exitY=0.5;exitDx=0;exitDy=0;entryX=1;entryY=1;entryDx=0;entryDy=0;labelBackgroundColor=default;strokeColor=default;align=center;verticalAlign=middle;fontFamily=Helvetica;fontSize=11;fontColor=default;endArrow=block;endFill=0;" edge="1" parent="Ps7PQwY17gpdZxub9paN-6" source="6LYkFVo2_rcvai8_w9H4-9" target="6LYkFVo2_rcvai8_w9H4-1">
          <mxGeometry relative="1" as="geometry" />
        </mxCell>
        <mxCell id="6LYkFVo2_rcvai8_w9H4-9" value="&lt;span style=&quot;font-size: 25px;&quot;&gt;Banned List&lt;/span&gt;" style="ellipse;whiteSpace=wrap;html=1;fontFamily=Helvetica;fontSize=11;fontColor=default;" vertex="1" parent="Ps7PQwY17gpdZxub9paN-6">
          <mxGeometry x="534" y="2765" width="264" height="109" as="geometry" />
        </mxCell>
        <mxCell id="6LYkFVo2_rcvai8_w9H4-14" style="edgeStyle=none;shape=connector;rounded=0;orthogonalLoop=1;jettySize=auto;html=1;exitX=0;exitY=0.5;exitDx=0;exitDy=0;labelBackgroundColor=default;strokeColor=default;align=center;verticalAlign=middle;fontFamily=Helvetica;fontSize=11;fontColor=default;endArrow=block;endFill=0;" edge="1" parent="Ps7PQwY17gpdZxub9paN-6" source="6LYkFVo2_rcvai8_w9H4-9" target="6LYkFVo2_rcvai8_w9H4-9">
          <mxGeometry relative="1" as="geometry" />
        </mxCell>
        <mxCell id="B167JhMeAKVKnHxiFFga-5" style="edgeStyle=none;shape=connector;rounded=0;orthogonalLoop=1;jettySize=auto;html=1;exitX=0;exitY=0.5;exitDx=0;exitDy=0;entryX=1;entryY=0.3333333333333333;entryDx=0;entryDy=0;entryPerimeter=0;labelBackgroundColor=default;strokeColor=default;align=center;verticalAlign=middle;fontFamily=Helvetica;fontSize=11;fontColor=default;endArrow=none;endFill=0;" parent="1" source="Ps7PQwY17gpdZxub9paN-17" target="Ps7PQwY17gpdZxub9paN-4" edge="1">
          <mxGeometry relative="1" as="geometry" />
        </mxCell>
        <mxCell id="6LYkFVo2_rcvai8_w9H4-16" style="edgeStyle=none;shape=connector;rounded=0;orthogonalLoop=1;jettySize=auto;html=1;exitX=0;exitY=0.25;exitDx=0;exitDy=0;entryX=1;entryY=0.3333333333333333;entryDx=0;entryDy=0;entryPerimeter=0;labelBackgroundColor=default;strokeColor=default;align=center;verticalAlign=middle;fontFamily=Helvetica;fontSize=11;fontColor=default;endArrow=none;endFill=0;" edge="1" parent="1" source="6LYkFVo2_rcvai8_w9H4-1" target="Ps7PQwY17gpdZxub9paN-3">
          <mxGeometry relative="1" as="geometry" />
        </mxCell>
        <mxCell id="6LYkFVo2_rcvai8_w9H4-18" style="edgeStyle=none;shape=connector;rounded=0;orthogonalLoop=1;jettySize=auto;html=1;exitX=0;exitY=0.5;exitDx=0;exitDy=0;entryX=1;entryY=0.3333333333333333;entryDx=0;entryDy=0;entryPerimeter=0;labelBackgroundColor=default;strokeColor=default;align=center;verticalAlign=middle;fontFamily=Helvetica;fontSize=11;fontColor=default;endArrow=none;endFill=0;" edge="1" parent="1" source="Ps7PQwY17gpdZxub9paN-13" target="Ps7PQwY17gpdZxub9paN-3">
          <mxGeometry relative="1" as="geometry" />
        </mxCell>
      </root>
    </mxGraphModel>
  </diagram>
</mxfile>
